# xmcd
#
# Track frame offsets:
#	150
#	23340
#	58710
#
# Disc length: 1310 seconds
#
# Revision: 2
# Processed by: cddbd v1.5.2PL0 Copyright (c) Steve Scherf et al.
# Submitted via: audiograbber 1.83.01
#
DISCID=18051c03
DTITLE=West Allison Blues Band - Christmas Blues
DYEAR=2006
DGENRE=Blues
TTITLE0=Christmas Blues
TTITLE1=What´s wrong with you
TTITLE2=Crying
EXTD=Demo
EXTT0=Musik: Kamphausen - Fandel, Text: Herpich - Seltmann 
EXTT1=Muisk and Text: Camphausen
EXTT2=Musik and Text: Camphausen
PLAYORDER=
